<mxfile host="app.diagrams.net" modified="2024-04-21T12:41:36.035Z" agent="Mozilla/5.0 (Windows NT 10.0; Win64; x64) AppleWebKit/537.36 (KHTML, like Gecko) Chrome/123.0.0.0 Safari/537.36" etag="kNdzOut6-YoaMYFGr4ga" version="24.2.5" type="github">
  <diagram name="Page-1" id="2Yn6XTgPI-Hl72qvhtjn">
    <mxGraphModel dx="2100" dy="1130" grid="1" gridSize="10" guides="1" tooltips="1" connect="1" arrows="1" fold="1" page="1" pageScale="1" pageWidth="827" pageHeight="1169" math="0" shadow="0">
      <root>
        <mxCell id="0" />
        <mxCell id="1" parent="0" />
        <mxCell id="QuDaaoWMqAtZtbamsjqq-1" value="" style="rounded=1;whiteSpace=wrap;html=1;arcSize=3;" vertex="1" parent="1">
          <mxGeometry x="320" y="110" width="360" height="360" as="geometry" />
        </mxCell>
        <mxCell id="QuDaaoWMqAtZtbamsjqq-3" value="" style="endArrow=none;html=1;rounded=0;" edge="1" parent="1">
          <mxGeometry width="50" height="50" relative="1" as="geometry">
            <mxPoint x="320" y="190" as="sourcePoint" />
            <mxPoint x="680" y="190" as="targetPoint" />
          </mxGeometry>
        </mxCell>
        <mxCell id="QuDaaoWMqAtZtbamsjqq-4" value="" style="endArrow=none;html=1;rounded=0;" edge="1" parent="1">
          <mxGeometry width="50" height="50" relative="1" as="geometry">
            <mxPoint x="320" y="150" as="sourcePoint" />
            <mxPoint x="680" y="150" as="targetPoint" />
          </mxGeometry>
        </mxCell>
        <mxCell id="QuDaaoWMqAtZtbamsjqq-5" value="" style="endArrow=none;html=1;rounded=0;" edge="1" parent="1">
          <mxGeometry width="50" height="50" relative="1" as="geometry">
            <mxPoint x="400" y="190" as="sourcePoint" />
            <mxPoint x="400" y="150" as="targetPoint" />
          </mxGeometry>
        </mxCell>
        <mxCell id="QuDaaoWMqAtZtbamsjqq-6" value="" style="endArrow=none;html=1;rounded=0;" edge="1" parent="1">
          <mxGeometry width="50" height="50" relative="1" as="geometry">
            <mxPoint x="470" y="190" as="sourcePoint" />
            <mxPoint x="470" y="150" as="targetPoint" />
          </mxGeometry>
        </mxCell>
        <mxCell id="QuDaaoWMqAtZtbamsjqq-7" value="" style="endArrow=none;html=1;rounded=0;" edge="1" parent="1">
          <mxGeometry width="50" height="50" relative="1" as="geometry">
            <mxPoint x="550" y="190" as="sourcePoint" />
            <mxPoint x="550" y="150" as="targetPoint" />
          </mxGeometry>
        </mxCell>
        <mxCell id="QuDaaoWMqAtZtbamsjqq-9" value="&lt;b&gt;&lt;font style=&quot;font-size: 18px;&quot;&gt;Create&lt;/font&gt;&lt;/b&gt;" style="text;html=1;align=center;verticalAlign=middle;whiteSpace=wrap;rounded=0;" vertex="1" parent="1">
          <mxGeometry x="330" y="160" width="60" height="30" as="geometry" />
        </mxCell>
        <mxCell id="QuDaaoWMqAtZtbamsjqq-10" value="&lt;b&gt;&lt;font style=&quot;font-size: 18px;&quot;&gt;Select&lt;/font&gt;&lt;/b&gt;" style="text;html=1;align=center;verticalAlign=middle;whiteSpace=wrap;rounded=0;" vertex="1" parent="1">
          <mxGeometry x="410" y="160" width="50" height="30" as="geometry" />
        </mxCell>
        <mxCell id="QuDaaoWMqAtZtbamsjqq-11" value="&lt;b&gt;&lt;font style=&quot;font-size: 18px;&quot;&gt;Learn&lt;/font&gt;&lt;/b&gt;" style="text;html=1;align=center;verticalAlign=middle;whiteSpace=wrap;rounded=0;" vertex="1" parent="1">
          <mxGeometry x="480" y="160" width="60" height="30" as="geometry" />
        </mxCell>
        <mxCell id="QuDaaoWMqAtZtbamsjqq-12" value="&lt;b&gt;&lt;font style=&quot;font-size: 18px;&quot;&gt;Upload&lt;/font&gt;&lt;/b&gt;" style="text;html=1;align=center;verticalAlign=middle;whiteSpace=wrap;rounded=0;" vertex="1" parent="1">
          <mxGeometry x="580" y="165" width="50" height="20" as="geometry" />
        </mxCell>
        <mxCell id="QuDaaoWMqAtZtbamsjqq-15" value="" style="rounded=1;whiteSpace=wrap;html=1;arcSize=3;" vertex="1" parent="1">
          <mxGeometry x="910" y="110" width="360" height="360" as="geometry" />
        </mxCell>
        <mxCell id="QuDaaoWMqAtZtbamsjqq-16" value="" style="endArrow=none;html=1;rounded=0;" edge="1" parent="1">
          <mxGeometry width="50" height="50" relative="1" as="geometry">
            <mxPoint x="910" y="190" as="sourcePoint" />
            <mxPoint x="1270" y="190" as="targetPoint" />
          </mxGeometry>
        </mxCell>
        <mxCell id="QuDaaoWMqAtZtbamsjqq-17" value="" style="endArrow=none;html=1;rounded=0;" edge="1" parent="1">
          <mxGeometry width="50" height="50" relative="1" as="geometry">
            <mxPoint x="910" y="150" as="sourcePoint" />
            <mxPoint x="1270" y="150" as="targetPoint" />
          </mxGeometry>
        </mxCell>
        <mxCell id="QuDaaoWMqAtZtbamsjqq-18" value="" style="endArrow=none;html=1;rounded=0;" edge="1" parent="1">
          <mxGeometry width="50" height="50" relative="1" as="geometry">
            <mxPoint x="990" y="190" as="sourcePoint" />
            <mxPoint x="990" y="150" as="targetPoint" />
          </mxGeometry>
        </mxCell>
        <mxCell id="QuDaaoWMqAtZtbamsjqq-19" value="" style="endArrow=none;html=1;rounded=0;" edge="1" parent="1">
          <mxGeometry width="50" height="50" relative="1" as="geometry">
            <mxPoint x="1060" y="190" as="sourcePoint" />
            <mxPoint x="1060" y="150" as="targetPoint" />
          </mxGeometry>
        </mxCell>
        <mxCell id="QuDaaoWMqAtZtbamsjqq-20" value="" style="endArrow=none;html=1;rounded=0;" edge="1" parent="1">
          <mxGeometry width="50" height="50" relative="1" as="geometry">
            <mxPoint x="1140" y="190" as="sourcePoint" />
            <mxPoint x="1140" y="150" as="targetPoint" />
          </mxGeometry>
        </mxCell>
        <mxCell id="QuDaaoWMqAtZtbamsjqq-21" value="&lt;b&gt;&lt;font style=&quot;font-size: 18px;&quot;&gt;Create&lt;/font&gt;&lt;/b&gt;" style="text;html=1;align=center;verticalAlign=middle;whiteSpace=wrap;rounded=0;" vertex="1" parent="1">
          <mxGeometry x="920" y="160" width="60" height="30" as="geometry" />
        </mxCell>
        <mxCell id="QuDaaoWMqAtZtbamsjqq-22" value="&lt;b&gt;&lt;font style=&quot;font-size: 18px;&quot;&gt;Select&lt;/font&gt;&lt;/b&gt;" style="text;html=1;align=center;verticalAlign=middle;whiteSpace=wrap;rounded=0;" vertex="1" parent="1">
          <mxGeometry x="1000" y="160" width="50" height="30" as="geometry" />
        </mxCell>
        <mxCell id="QuDaaoWMqAtZtbamsjqq-23" value="&lt;b&gt;&lt;font style=&quot;font-size: 18px;&quot;&gt;Learn&lt;/font&gt;&lt;/b&gt;" style="text;html=1;align=center;verticalAlign=middle;whiteSpace=wrap;rounded=0;" vertex="1" parent="1">
          <mxGeometry x="1070" y="160" width="60" height="30" as="geometry" />
        </mxCell>
        <mxCell id="QuDaaoWMqAtZtbamsjqq-24" value="&lt;b&gt;&lt;font style=&quot;font-size: 18px;&quot;&gt;Upload&lt;/font&gt;&lt;/b&gt;" style="text;html=1;align=center;verticalAlign=middle;whiteSpace=wrap;rounded=0;" vertex="1" parent="1">
          <mxGeometry x="1170" y="165" width="50" height="20" as="geometry" />
        </mxCell>
        <mxCell id="QuDaaoWMqAtZtbamsjqq-35" value="" style="rounded=1;whiteSpace=wrap;html=1;arcSize=3;" vertex="1" parent="1">
          <mxGeometry x="1470" y="120" width="360" height="360" as="geometry" />
        </mxCell>
        <mxCell id="QuDaaoWMqAtZtbamsjqq-36" value="" style="endArrow=none;html=1;rounded=0;" edge="1" parent="1">
          <mxGeometry width="50" height="50" relative="1" as="geometry">
            <mxPoint x="1470" y="200" as="sourcePoint" />
            <mxPoint x="1830" y="200" as="targetPoint" />
          </mxGeometry>
        </mxCell>
        <mxCell id="QuDaaoWMqAtZtbamsjqq-37" value="" style="endArrow=none;html=1;rounded=0;" edge="1" parent="1">
          <mxGeometry width="50" height="50" relative="1" as="geometry">
            <mxPoint x="1470" y="160" as="sourcePoint" />
            <mxPoint x="1830" y="160" as="targetPoint" />
          </mxGeometry>
        </mxCell>
        <mxCell id="QuDaaoWMqAtZtbamsjqq-38" value="" style="endArrow=none;html=1;rounded=0;" edge="1" parent="1">
          <mxGeometry width="50" height="50" relative="1" as="geometry">
            <mxPoint x="1550" y="200" as="sourcePoint" />
            <mxPoint x="1550" y="160" as="targetPoint" />
          </mxGeometry>
        </mxCell>
        <mxCell id="QuDaaoWMqAtZtbamsjqq-39" value="" style="endArrow=none;html=1;rounded=0;" edge="1" parent="1">
          <mxGeometry width="50" height="50" relative="1" as="geometry">
            <mxPoint x="1620" y="200" as="sourcePoint" />
            <mxPoint x="1620" y="160" as="targetPoint" />
          </mxGeometry>
        </mxCell>
        <mxCell id="QuDaaoWMqAtZtbamsjqq-40" value="" style="endArrow=none;html=1;rounded=0;" edge="1" parent="1">
          <mxGeometry width="50" height="50" relative="1" as="geometry">
            <mxPoint x="1700" y="200" as="sourcePoint" />
            <mxPoint x="1700" y="160" as="targetPoint" />
          </mxGeometry>
        </mxCell>
        <mxCell id="QuDaaoWMqAtZtbamsjqq-41" value="&lt;b&gt;&lt;font style=&quot;font-size: 18px;&quot;&gt;Create&lt;/font&gt;&lt;/b&gt;" style="text;html=1;align=center;verticalAlign=middle;whiteSpace=wrap;rounded=0;" vertex="1" parent="1">
          <mxGeometry x="1480" y="170" width="60" height="30" as="geometry" />
        </mxCell>
        <mxCell id="QuDaaoWMqAtZtbamsjqq-42" value="&lt;b&gt;&lt;font style=&quot;font-size: 18px;&quot;&gt;Select&lt;/font&gt;&lt;/b&gt;" style="text;html=1;align=center;verticalAlign=middle;whiteSpace=wrap;rounded=0;" vertex="1" parent="1">
          <mxGeometry x="1560" y="170" width="50" height="30" as="geometry" />
        </mxCell>
        <mxCell id="QuDaaoWMqAtZtbamsjqq-43" value="&lt;b&gt;&lt;font style=&quot;font-size: 18px;&quot;&gt;Learn&lt;/font&gt;&lt;/b&gt;" style="text;html=1;align=center;verticalAlign=middle;whiteSpace=wrap;rounded=0;" vertex="1" parent="1">
          <mxGeometry x="1630" y="170" width="60" height="30" as="geometry" />
        </mxCell>
        <mxCell id="QuDaaoWMqAtZtbamsjqq-44" value="&lt;b&gt;&lt;font style=&quot;font-size: 18px;&quot;&gt;Upload&lt;/font&gt;&lt;/b&gt;" style="text;html=1;align=center;verticalAlign=middle;whiteSpace=wrap;rounded=0;" vertex="1" parent="1">
          <mxGeometry x="1730" y="175" width="50" height="20" as="geometry" />
        </mxCell>
      </root>
    </mxGraphModel>
  </diagram>
</mxfile>
